<svg width="320" height="64" viewBox="0 0 320 64" fill="none" xmlns="http://www.w3.org/2000/svg">
<path d="M77.3552 12.2969V48.2009H72.0005V12.2969H77.3552Z" fill="#9758F5"/>
<path d="M84.7366 48.2003V21.2723H89.7446V25.5496H90.0219C90.5072 24.1016 91.3659 22.9576 92.5952 22.123C93.8246 21.2883 95.2192 20.8696 96.7792 20.8696C97.1019 20.8696 97.4859 20.8803 97.9312 20.9043C98.3766 20.9283 98.7259 20.9576 98.9792 20.9923V26.0056C98.7712 25.947 98.4006 25.8803 97.8699 25.803C97.3392 25.7283 96.8059 25.6883 96.2752 25.6883C95.0512 25.6883 93.9632 25.9496 93.0086 26.4696C92.0566 26.9896 91.3019 27.7096 90.7472 28.627C90.1926 29.5443 89.9152 30.587 89.9152 31.755V48.2003H84.7339H84.7366Z" fill="#9758F5"/>
<path d="M106.1 17.118C105.198 17.118 104.428 16.8114 103.788 16.198C103.148 15.5847 102.825 14.8514 102.825 13.998C102.825 13.1447 103.145 12.3927 103.788 11.7794C104.428 11.166 105.201 10.8594 106.1 10.8594C106.998 10.8594 107.772 11.166 108.412 11.7794C109.052 12.3927 109.374 13.126 109.374 13.9794C109.374 14.8327 109.054 15.5847 108.412 16.198C107.772 16.8114 106.998 17.118 106.1 17.118Z" fill="#45D2F5"/>
<path d="M108.665 21.271H103.483V48.199H108.665V21.271Z" fill="#9758F5"/>
<path d="M135.574 27.8445L130.878 28.6872C130.681 28.0792 130.372 27.5005 129.95 26.9512C129.529 26.4019 128.961 25.9512 128.244 25.6019C127.526 25.2525 126.633 25.0765 125.558 25.0765C124.092 25.0765 122.868 25.4072 121.884 26.0659C120.902 26.7272 120.412 27.5779 120.412 28.6179C120.412 29.5192 120.74 30.2419 121.398 30.7912C122.057 31.3405 123.118 31.7912 124.588 32.1405L128.814 33.1219C131.262 33.6952 133.089 34.5779 134.289 35.7699C135.489 36.9619 136.092 38.5112 136.092 40.4152C136.092 42.0285 135.633 43.4632 134.713 44.7192C133.796 45.9752 132.518 46.9592 130.884 47.6739C129.249 48.3859 127.358 48.7432 125.209 48.7432C122.228 48.7432 119.796 48.0979 117.913 46.8072C116.03 45.5165 114.876 43.6792 114.446 41.2925L119.454 40.5219C119.766 41.8419 120.406 42.8392 121.377 43.5112C122.348 44.1832 123.612 44.5192 125.172 44.5192C126.87 44.5192 128.228 44.1592 129.244 43.4419C130.26 42.7219 130.769 41.8445 130.769 40.8045C130.769 39.9619 130.46 39.2552 129.841 38.6845C129.222 38.1112 128.278 37.6792 127.009 37.3885L122.505 36.3885C120.022 35.8152 118.188 34.9032 117.004 33.6525C115.82 32.4019 115.228 30.8179 115.228 28.9005C115.228 27.3112 115.668 25.9192 116.545 24.7272C117.422 23.5352 118.636 22.6019 120.182 21.9299C121.729 21.2579 123.502 20.9219 125.502 20.9219C128.38 20.9219 130.644 21.5512 132.294 22.8072C133.945 24.0632 135.038 25.7432 135.569 27.8472L135.574 27.8445Z" fill="#9758F5"/>
<path d="M147.545 12.2969V48.2009H142.19V12.2969H147.545Z" fill="#2DE075"/>
<path d="M160.108 32.2099V48.1992H154.927V21.2712H159.9V25.6552H160.228C160.841 24.2285 161.801 23.0845 163.113 22.2179C164.425 21.3539 166.079 20.9219 168.079 20.9219C169.892 20.9219 171.481 21.3059 172.844 22.0712C174.207 22.8365 175.263 23.9725 176.015 25.4819C176.767 26.9885 177.14 28.8525 177.14 31.0739V48.2019H171.959V31.7059C171.959 29.7539 171.457 28.2259 170.452 27.1219C169.447 26.0179 168.065 25.4659 166.311 25.4659C165.108 25.4659 164.044 25.7299 163.113 26.2552C162.183 26.7805 161.449 27.5485 160.913 28.5592C160.377 29.5699 160.108 30.7885 160.108 32.2152V32.2099Z" fill="#2DE075"/>
<path d="M204.015 27.8445L199.319 28.6872C199.122 28.0792 198.812 27.5005 198.391 26.9512C197.97 26.4019 197.402 25.9512 196.684 25.6019C195.967 25.2525 195.074 25.0765 193.999 25.0765C192.532 25.0765 191.308 25.4072 190.324 26.0659C189.343 26.7272 188.852 27.5779 188.852 28.6179C188.852 29.5192 189.18 30.2419 189.839 30.7912C190.498 31.3405 191.559 31.7912 193.028 32.1405L197.255 33.1219C199.703 33.6952 201.53 34.5779 202.73 35.7699C203.93 36.9619 204.532 38.5112 204.532 40.4152C204.532 42.0285 204.074 43.4632 203.154 44.7192C202.236 45.9752 200.959 46.9592 199.324 47.6739C197.69 48.3859 195.799 48.7432 193.65 48.7432C190.668 48.7432 188.236 48.0979 186.354 46.8072C184.471 45.5165 183.316 43.6792 182.887 41.2925L187.895 40.5219C188.207 41.8419 188.847 42.8392 189.818 43.5112C190.788 44.1832 192.052 44.5192 193.612 44.5192C195.311 44.5192 196.668 44.1592 197.684 43.4419C198.7 42.7219 199.21 41.8445 199.21 40.8045C199.21 39.9619 198.9 39.2552 198.282 38.6845C197.663 38.1112 196.719 37.6792 195.45 37.3885L190.946 36.3885C188.463 35.8152 186.628 34.9032 185.444 33.6525C184.26 32.4019 183.668 30.8179 183.668 28.9005C183.668 27.3112 184.108 25.9192 184.986 24.7272C185.863 23.5352 187.076 22.6019 188.623 21.9299C190.17 21.2579 191.943 20.9219 193.943 20.9219C196.82 20.9219 199.084 21.5512 200.735 22.8072C202.386 24.0632 203.479 25.7432 204.01 27.8472L204.015 27.8445Z" fill="#2DE075"/>
<path d="M212.834 17.118C211.932 17.118 211.162 16.8114 210.522 16.198C209.882 15.5847 209.559 14.8514 209.559 13.998C209.559 13.1447 209.879 12.3927 210.522 11.7794C211.162 11.166 211.935 10.8594 212.834 10.8594C213.732 10.8594 214.506 11.166 215.146 11.7794C215.786 12.3927 216.108 13.126 216.108 13.9794C216.108 14.8327 215.788 15.5847 215.146 16.198C214.506 16.8114 213.732 17.118 212.834 17.118Z" fill="#9758F5"/>
<path d="M215.399 21.271H210.218V48.199H215.399V21.271Z" fill="#2DE075"/>
<path d="M233.522 58.8591C231.407 58.8591 229.591 58.5791 228.074 58.0164C226.554 57.4564 225.317 56.7124 224.357 55.7898C223.397 54.8671 222.682 53.8564 222.207 52.7578L226.661 50.8991C226.973 51.4138 227.391 51.9604 227.917 52.5391C228.442 53.1178 229.159 53.6111 230.066 54.0218C230.973 54.4298 232.143 54.6351 233.575 54.6351C235.538 54.6351 237.162 54.1524 238.445 53.1898C239.727 52.2244 240.367 50.6911 240.367 48.5871V43.2938H240.039C239.727 43.8671 239.279 44.5044 238.695 45.2058C238.111 45.9071 237.311 46.5151 236.295 47.0298C235.279 47.5444 233.957 47.8004 232.327 47.8004C230.226 47.8004 228.333 47.3018 226.653 46.3018C224.973 45.3018 223.645 43.8244 222.669 41.8671C221.693 39.9098 221.205 37.4991 221.205 34.6351C221.205 31.7711 221.687 29.3178 222.653 27.2724C223.618 25.2271 224.943 23.6591 226.629 22.5658C228.314 21.4724 230.226 20.9258 232.365 20.9258C234.015 20.9258 235.351 21.2031 236.367 21.7578C237.383 22.3124 238.178 22.9578 238.749 23.6938C239.319 24.4298 239.762 25.0778 240.074 25.6404H240.455V21.2751H245.533V48.7978C245.533 51.1124 245.002 53.0111 243.938 54.4964C242.874 55.9818 241.439 57.0804 239.631 57.7924C237.823 58.5044 235.789 58.8618 233.525 58.8618L233.522 58.8591ZM233.471 43.4484C234.962 43.4484 236.223 43.0938 237.258 42.3871C238.293 41.6804 239.077 40.6644 239.615 39.3364C240.151 38.0111 240.421 36.4164 240.421 34.5604C240.421 32.7044 240.154 31.1524 239.623 29.7738C239.093 28.3951 238.311 27.3178 237.285 26.5391C236.255 25.7631 234.986 25.3738 233.474 25.3738C231.962 25.3738 230.615 25.7791 229.575 26.5924C228.535 27.4058 227.754 28.5071 227.229 29.8964C226.703 31.2884 226.439 32.8404 226.439 34.5604C226.439 36.2804 226.706 37.8751 227.237 39.2058C227.767 40.5391 228.557 41.5791 229.602 42.3258C230.647 43.0751 231.938 43.4484 233.474 43.4484H233.471Z" fill="#2DE075"/>
<path d="M257.661 32.2115V48.2009H252.479V12.2969H257.592V25.6542H257.919C258.543 24.2062 259.495 23.0542 260.778 22.2009C262.061 21.3475 263.736 20.9209 265.802 20.9209C267.626 20.9209 269.223 21.2995 270.594 22.0595C271.962 22.8195 273.026 23.9502 273.784 25.4515C274.541 26.9529 274.919 28.8275 274.919 31.0702V48.1982H269.738V31.7022C269.738 29.7262 269.237 28.1929 268.231 27.0995C267.226 26.0062 265.829 25.4595 264.04 25.4595C262.816 25.4595 261.72 25.7235 260.757 26.2489C259.792 26.7742 259.034 27.5422 258.488 28.5529C257.938 29.5635 257.663 30.7822 257.663 32.2089L257.661 32.2115Z" fill="#2DE075"/>
<path d="M294.272 21.2734V25.4814H279.736V21.2734H294.272ZM283.635 14.8228H288.816V40.2948C288.816 41.3108 288.965 42.0734 289.267 42.5828C289.568 43.0921 289.957 43.4361 290.437 43.6174C290.917 43.7988 291.44 43.8894 292.005 43.8894C292.421 43.8894 292.784 43.8601 293.096 43.8014C293.408 43.7428 293.65 43.6974 293.824 43.6601L294.76 47.9908C294.458 48.1081 294.032 48.2281 293.477 48.3508C292.923 48.4734 292.229 48.5401 291.397 48.5534C290.035 48.5774 288.762 48.3321 287.586 47.8174C286.408 47.3028 285.456 46.5081 284.728 45.4334C284 44.3588 283.637 43.0094 283.637 41.3828V14.8228H283.635Z" fill="#2DE075"/>
<path d="M319.483 27.8445L314.786 28.6872C314.589 28.0792 314.28 27.5005 313.858 26.9512C313.437 26.4019 312.869 25.9512 312.152 25.6019C311.435 25.2525 310.541 25.0765 309.467 25.0765C308 25.0765 306.776 25.4072 305.792 26.0659C304.81 26.7272 304.32 27.5779 304.32 28.6179C304.32 29.5192 304.648 30.2419 305.307 30.7912C305.965 31.3405 307.027 31.7912 308.496 32.1405L312.722 33.1219C315.17 33.6952 316.997 34.5779 318.197 35.7699C319.397 36.9619 320 38.5112 320 40.4152C320 42.0285 319.541 43.4632 318.621 44.7192C317.704 45.9752 316.426 46.9592 314.792 47.6739C313.157 48.3859 311.267 48.7432 309.117 48.7432C306.136 48.7432 303.704 48.0979 301.821 46.8072C299.938 45.5165 298.784 43.6792 298.354 41.2925L303.363 40.5219C303.675 41.8419 304.315 42.8392 305.285 43.5112C306.256 44.1832 307.52 44.5192 309.08 44.5192C310.779 44.5192 312.136 44.1592 313.152 43.4419C314.168 42.7219 314.677 41.8445 314.677 40.8045C314.677 39.9619 314.368 39.2552 313.749 38.6845C313.131 38.1112 312.187 37.6792 310.917 37.3885L306.413 36.3885C303.931 35.8152 302.096 34.9032 300.912 33.6525C299.728 32.4019 299.136 30.8179 299.136 28.9005C299.136 27.3112 299.576 25.9192 300.453 24.7272C301.33 23.5352 302.544 22.6019 304.09 21.9299C305.637 21.2579 307.411 20.9219 309.411 20.9219C312.288 20.9219 314.552 21.5512 316.203 22.8072C317.853 24.0632 318.947 25.7432 319.477 27.8472L319.483 27.8445Z" fill="#2DE075"/>
<path d="M64.0005 32.0293C64.0005 47.7493 52.6858 60.8267 37.7603 63.5387C36.5043 63.768 35.2216 63.9253 33.9203 64V38.104C33.9203 38.8613 33.9736 39.6187 34.0803 40.3707C34.8296 40.4773 35.587 40.5307 36.3443 40.5307C36.4936 40.5307 36.643 40.5307 36.7923 40.5253C37.115 40.5173 37.4376 40.4987 37.763 40.4693V59.6293C39.5417 59.2613 41.2777 58.7173 42.963 58.0053C46.3151 56.5867 49.3284 54.552 51.9151 51.9627C54.5018 49.3733 56.5338 46.3573 57.9525 43.0027C59.4192 39.5307 60.1632 35.84 60.1632 32.032C60.1632 28.224 59.4192 24.5333 57.9525 21.0613C56.5338 17.7067 54.5018 14.6907 51.9151 12.1013C49.3284 9.512 46.3151 7.48 42.963 6.05867C39.4937 4.592 35.8056 3.84533 32.0029 3.84533C28.2002 3.84533 24.5122 4.58933 21.0428 6.05867C17.6908 7.47733 14.6775 9.512 12.0908 12.1013C9.50408 14.6907 7.47206 17.7067 6.05338 21.0613C4.58671 24.5333 3.8427 28.224 3.8427 32.032C3.8427 35.84 4.58671 39.5307 6.05338 43.0027C7.47206 46.3573 9.50408 49.3733 12.0908 51.9627C14.6775 54.552 17.6908 56.584 21.0428 58.0053C22.7282 58.7173 24.4642 59.2613 26.2429 59.6293V40.4693C26.5656 40.4987 26.8882 40.5173 27.2136 40.5253C27.3629 40.5307 27.5122 40.5307 27.6616 40.5307C28.4189 40.5307 29.1736 40.4773 29.9256 40.3707C30.0322 39.6187 30.0856 38.8613 30.0856 38.104V64C28.7842 63.9253 27.5016 63.768 26.2456 63.5387C11.3148 60.824 0 47.7493 0 32.0293C0 14.3387 14.3255 0 32.0003 0C49.6751 0 64.0005 14.3387 64.0005 32.0293ZM30.0803 38.104C30.0803 38.8613 30.0269 39.6187 29.9202 40.3707C29.1682 40.4773 28.4136 40.5307 27.6562 40.5307C27.5069 40.5307 27.3576 40.5307 27.2082 40.5253C26.8856 40.5173 26.5629 40.4987 26.2376 40.4693C22.6269 40.152 19.1042 38.608 16.3415 35.8427C12.6401 32.1387 11.1308 27.0693 11.8161 22.2533C12.5654 22.1467 13.3228 22.0933 14.0801 22.0933C18.1735 22.0933 22.2695 23.656 25.3922 26.784C25.6082 27 25.8189 27.224 26.0216 27.448C27.7229 29.352 28.8882 31.5653 29.5202 33.8933C29.7682 34.8107 29.9362 35.7467 30.0162 36.688C30.0269 36.7893 30.0322 36.8907 30.0403 36.9893C30.0669 37.36 30.0803 37.7333 30.0803 38.104ZM26.1442 36.5947C26.0616 35.92 25.9229 35.2533 25.7282 34.6053C25.7015 34.5173 25.6749 34.4293 25.6482 34.344C25.0535 32.5067 24.0562 30.8773 22.6775 29.5013C20.7415 27.5627 18.2668 26.36 15.5895 26.0293C15.6855 26.7947 15.8508 27.552 16.0855 28.2827C16.6801 30.12 17.6801 31.7493 19.0562 33.1253C20.9628 35.032 23.3869 36.2267 26.0135 36.5813C26.0562 36.5867 26.0989 36.592 26.1442 36.5973V36.5947ZM47.6564 35.84C44.8937 38.6053 41.371 40.1493 37.7603 40.4667C37.4376 40.496 37.115 40.5147 36.7896 40.5227C36.6403 40.528 36.491 40.528 36.3416 40.528C35.5843 40.528 34.827 40.4747 34.0776 40.368C33.971 39.616 33.9176 38.8587 33.9176 38.1013C33.9176 37.728 33.9309 37.3573 33.9576 36.9867C33.9629 36.8853 33.971 36.784 33.9816 36.6853C34.0643 35.744 34.2296 34.808 34.4776 33.8907C35.1096 31.5627 36.275 29.3493 37.9763 27.4453C38.179 27.2187 38.387 26.9973 38.6057 26.7813C41.731 23.6533 45.8244 22.0907 49.9178 22.0907C50.6751 22.0907 51.4324 22.144 52.1818 22.2507C52.8671 27.0667 51.3578 32.136 47.6564 35.84ZM48.4084 26.0267C45.731 26.3573 43.2564 27.56 41.3203 29.4987C39.9443 30.8773 38.9443 32.5067 38.3497 34.3413C38.323 34.4293 38.2937 34.5173 38.2696 34.6027C38.075 35.2507 37.9363 35.9173 37.8536 36.592C37.8963 36.5867 37.939 36.5813 37.9843 36.576C40.6083 36.224 43.035 35.0267 44.9417 33.12C46.3177 31.7413 47.3177 30.112 47.9124 28.2773C48.1471 27.5467 48.3151 26.7893 48.4084 26.024V26.0267Z" fill="#2DE075"/>
<path d="M37.8349 26.7603C36.4269 28.2536 35.3362 29.9363 34.5575 31.7203C34.5255 29.3736 34.1175 27.1336 33.4055 25.3816C32.8615 24.0456 32.2989 23.3896 32.0002 23.1443C31.7015 23.3896 31.1415 24.0456 30.5949 25.3816C29.8802 27.1336 29.4749 29.3736 29.4429 31.7203C28.6642 29.9336 27.5709 28.2536 26.1655 26.7603C27.1682 22.3123 29.4029 19.2163 32.0002 19.2163C34.5975 19.2163 36.8322 22.3123 37.8349 26.7603Z" fill="#9758F5"/>
<path d="M32.0002 5.76562C28.8189 5.76562 26.2402 8.34696 26.2402 11.531C26.2402 14.715 28.8189 17.2963 32.0002 17.2963C35.1816 17.2963 37.7602 14.715 37.7602 11.531C37.7602 8.34696 35.1816 5.76562 32.0002 5.76562ZM32.0002 13.4536C30.9416 13.4536 30.0802 12.5923 30.0802 11.531C30.0802 10.4696 30.9416 9.60829 32.0002 9.60829C33.0589 9.60829 33.9202 10.4696 33.9202 11.531C33.9202 12.5923 33.0589 13.4536 32.0002 13.4536ZM32.0002 5.76562C28.8189 5.76562 26.2402 8.34696 26.2402 11.531C26.2402 14.715 28.8189 17.2963 32.0002 17.2963C35.1816 17.2963 37.7602 14.715 37.7602 11.531C37.7602 8.34696 35.1816 5.76562 32.0002 5.76562ZM32.0002 13.4536C30.9416 13.4536 30.0802 12.5923 30.0802 11.531C30.0802 10.4696 30.9416 9.60829 32.0002 9.60829C33.0589 9.60829 33.9202 10.4696 33.9202 11.531C33.9202 12.5923 33.0589 13.4536 32.0002 13.4536ZM32.0002 5.76562C28.8189 5.76562 26.2402 8.34696 26.2402 11.531C26.2402 14.715 28.8189 17.2963 32.0002 17.2963C35.1816 17.2963 37.7602 14.715 37.7602 11.531C37.7602 8.34696 35.1816 5.76562 32.0002 5.76562ZM32.0002 13.4536C30.9416 13.4536 30.0802 12.5923 30.0802 11.531C30.0802 10.4696 30.9416 9.60829 32.0002 9.60829C33.0589 9.60829 33.9202 10.4696 33.9202 11.531C33.9202 12.5923 33.0589 13.4536 32.0002 13.4536ZM32.0002 5.76562C28.8189 5.76562 26.2402 8.34696 26.2402 11.531C26.2402 14.715 28.8189 17.2963 32.0002 17.2963C35.1816 17.2963 37.7602 14.715 37.7602 11.531C37.7602 8.34696 35.1816 5.76562 32.0002 5.76562ZM32.0002 13.4536C30.9416 13.4536 30.0802 12.5923 30.0802 11.531C30.0802 10.4696 30.9416 9.60829 32.0002 9.60829C33.0589 9.60829 33.9202 10.4696 33.9202 11.531C33.9202 12.5923 33.0589 13.4536 32.0002 13.4536ZM32.0002 5.76562C28.8189 5.76562 26.2402 8.34696 26.2402 11.531C26.2402 14.715 28.8189 17.2963 32.0002 17.2963C35.1816 17.2963 37.7602 14.715 37.7602 11.531C37.7602 8.34696 35.1816 5.76562 32.0002 5.76562ZM32.0002 13.4536C30.9416 13.4536 30.0802 12.5923 30.0802 11.531C30.0802 10.4696 30.9416 9.60829 32.0002 9.60829C33.0589 9.60829 33.9202 10.4696 33.9202 11.531C33.9202 12.5923 33.0589 13.4536 32.0002 13.4536ZM32.0002 5.76562C28.8189 5.76562 26.2402 8.34696 26.2402 11.531C26.2402 14.715 28.8189 17.2963 32.0002 17.2963C35.1816 17.2963 37.7602 14.715 37.7602 11.531C37.7602 8.34696 35.1816 5.76562 32.0002 5.76562ZM32.0002 13.4536C30.9416 13.4536 30.0802 12.5923 30.0802 11.531C30.0802 10.4696 30.9416 9.60829 32.0002 9.60829C33.0589 9.60829 33.9202 10.4696 33.9202 11.531C33.9202 12.5923 33.0589 13.4536 32.0002 13.4536Z" fill="#45D2F5"/>
</svg>
