<svg width="1512" height="982" viewBox="0 0 1512 982" fill="none" xmlns="http://www.w3.org/2000/svg">
<g clip-path="url(#clip0_1_208)">
<rect width="1512" height="982" fill="#FAFAFA"/>
<g opacity="0.15">
<path d="M1439.39 865.774C1439.23 863.054 1439.06 860.307 1438.83 857.587C1436.84 832.083 1432.79 806.735 1426.76 781.911C1411.42 718.844 1383.12 658.889 1341.83 607.279C1336.94 601.158 1331.83 595.142 1326.58 589.256C1250.74 504.556 1151.31 462.18 1051.85 462.18C1033.48 462.18 1015.11 463.618 996.886 466.522C980.275 596.999 1016.92 734.303 1106.79 834.646C1173.92 909.537 1259.43 951.338 1347.13 959.996C1354.98 960.781 1362.83 961.304 1370.7 961.54C1374.31 961.644 1377.91 961.723 1381.52 961.723C1399.91 961.723 1418.28 960.284 1436.49 957.38C1439.09 937.029 1440.38 916.495 1440.38 895.961C1440.38 885.89 1440.07 875.845 1439.42 865.801L1439.39 865.774ZM1341.62 854.605C1277.85 845.057 1218.95 812.673 1172.7 761.011C1139.26 723.709 1115.02 679.554 1100.58 629.801C1094.84 610.026 1090.79 589.544 1088.52 568.8C1153.49 577.747 1213.58 610.366 1260.6 662.839C1294.01 700.141 1318.29 744.296 1332.72 794.049C1333.4 796.351 1334.03 798.705 1334.66 801.059C1339.37 818.664 1342.75 836.739 1344.79 855.05C1343.73 854.893 1342.65 854.762 1341.6 854.579L1341.62 854.605Z" fill="#AC58F5"/>
<path d="M1628.68 588.731C1594.52 629.224 1567.99 674.791 1549.09 723.184C1548.31 659.567 1538.45 598.854 1521.09 551.429C1507.88 515.252 1494.24 497.491 1486.98 490.794C1479.76 497.491 1466.1 515.252 1452.89 551.429C1435.53 598.854 1425.66 659.515 1424.87 723.105C1405.96 674.713 1379.41 629.171 1345.28 588.705C1369.64 468.22 1423.95 384.383 1487 384.383C1550.05 384.383 1604.33 468.22 1628.72 588.731H1628.68Z" fill="#2DE075"/>
<path d="M1486.98 20C1409.73 20 1347.1 89.8947 1347.1 176.164C1347.1 262.434 1409.73 332.329 1486.98 332.329C1564.22 332.329 1626.85 262.408 1626.85 176.164C1626.85 89.9208 1564.22 20 1486.98 20ZM1486.98 228.219C1461.28 228.219 1440.35 204.86 1440.35 176.164C1440.35 147.469 1461.28 124.11 1486.98 124.11C1512.68 124.11 1533.6 147.443 1533.6 176.164C1533.6 204.886 1512.7 228.219 1486.98 228.219Z" fill="#58D5F5"/>
</g>
</g>
<defs>
<clipPath id="clip0_1_208">
<rect width="1512" height="982" fill="white"/>
</clipPath>
</defs>
</svg>
